<?xml version="1.0" encoding="UTF-8"?>
<svg id="Layer_2" data-name="Layer 2" xmlns="http://www.w3.org/2000/svg" xmlns:xlink="http://www.w3.org/1999/xlink" viewBox="0 0 1700 900">
  <defs>
    <style>
      .cls-1, .cls-2 {
        fill: none;
      }

      .cls-2 {
        stroke: #fff;
        stroke-linecap: square;
        stroke-width: .17px;
      }

      .cls-3 {
        fill: #1d184c;
      }

      .cls-4 {
        clip-path: url(#clippath-11);
      }

      .cls-5 {
        clip-path: url(#clippath-10);
      }

      .cls-6 {
        clip-path: url(#clippath-13);
      }

      .cls-7 {
        clip-path: url(#clippath-14);
      }

      .cls-8 {
        clip-path: url(#clippath-12);
      }

      .cls-9 {
        clip-path: url(#clippath-1);
      }

      .cls-10 {
        clip-path: url(#clippath-3);
      }

      .cls-11 {
        clip-path: url(#clippath-4);
      }

      .cls-12 {
        clip-path: url(#clippath-2);
      }

      .cls-13 {
        clip-path: url(#clippath-7);
      }

      .cls-14 {
        clip-path: url(#clippath-6);
      }

      .cls-15 {
        clip-path: url(#clippath-9);
      }

      .cls-16 {
        clip-path: url(#clippath-8);
      }

      .cls-17 {
        clip-path: url(#clippath-5);
      }

      .cls-18 {
        fill: #fff;
      }

      .cls-19 {
        fill: #2e6fb7;
      }

      .cls-20 {
        clip-path: url(#clippath);
      }
    </style>
    <clipPath id="clippath">
      <rect class="cls-1" x="620.13" y="126.73" width="892.74" height="607.47"/>
    </clipPath>
    <clipPath id="clippath-1">
      <rect class="cls-1" x="1076.91" y="526.67" width="207.66" height="207.65"/>
    </clipPath>
    <clipPath id="clippath-2">
      <rect class="cls-1" x="848.6" y="526.67" width="207.65" height="207.65"/>
    </clipPath>
    <clipPath id="clippath-3">
      <rect class="cls-1" x="620.68" y="526.67" width="207.65" height="207.65"/>
    </clipPath>
    <clipPath id="clippath-4">
      <rect class="cls-1" x="620.68" y="526.67" width="207.65" height="207.65"/>
    </clipPath>
    <clipPath id="clippath-5">
      <rect class="cls-1" x="1305.23" y="526.67" width="207.64" height="207.65"/>
    </clipPath>
    <clipPath id="clippath-6">
      <rect class="cls-1" x="1305.22" y="526.67" width="207.65" height="207.65"/>
    </clipPath>
    <clipPath id="clippath-7">
      <rect class="cls-1" x="620.13" y="391.88" width="891.94" height=".24"/>
    </clipPath>
    <clipPath id="clippath-8">
      <rect class="cls-1" x="620.13" y="391.88" width="891.94" height=".24"/>
    </clipPath>
    <clipPath id="clippath-9">
      <rect class="cls-1" x="620.13" y="466.53" width="891.94" height=".24"/>
    </clipPath>
    <clipPath id="clippath-10">
      <rect class="cls-1" x="620.13" y="466.53" width="891.94" height=".24"/>
    </clipPath>
    <clipPath id="clippath-11">
      <rect class="cls-1" x="620.13" y="146.47" width="891.82" height=".24"/>
    </clipPath>
    <clipPath id="clippath-12">
      <rect class="cls-1" x="620.13" y="146.47" width="891.82" height=".24"/>
    </clipPath>
    <clipPath id="clippath-13">
      <rect class="cls-1" x="620.13" y="129.11" width="891.82" height=".24"/>
    </clipPath>
    <clipPath id="clippath-14">
      <rect class="cls-1" x="620.13" y="129.11" width="891.82" height=".24"/>
    </clipPath>
  </defs>
  <g id="Layer_1-2" data-name="Layer 1">
    <rect class="cls-3" width="1700" height="900"/>
    <g>
      <path class="cls-18" d="M110.94,135.19l-3.91-10.37-3.88,10.37h7.78ZM105.53,121.9h3.17l8.18,21.53h-2.86l-2.28-5.81h-9.38l-2.28,5.81h-2.77l8.21-21.53Z"/>
      <g>
        <path class="cls-18" d="M125.95,141c1.64,0,2.9-.32,3.77-.95.87-.64,1.31-1.52,1.31-2.65,0-1.21-.44-2.14-1.32-2.78-.88-.65-2.13-.97-3.75-.97h-5.17v7.35h5.17ZM125.86,131.25c1.37,0,2.44-.31,3.2-.92.76-.62,1.14-1.47,1.14-2.55s-.37-1.93-1.12-2.54c-.75-.61-1.82-.91-3.21-.91h-5.08v6.92h5.08ZM131.01,123.38c1.24.98,1.86,2.35,1.86,4.09,0,1.27-.33,2.32-.98,3.15-.66.83-1.61,1.41-2.86,1.74,3.16.59,4.74,2.31,4.74,5.14,0,1.85-.67,3.3-2.02,4.35-1.34,1.06-3.28,1.58-5.8,1.58h-7.84v-21.53h7.63c2.28,0,4.04.49,5.28,1.48"/>
        <path class="cls-18" d="M140.13,123.08c1.56-.91,3.36-1.37,5.41-1.37,2.38,0,4.37.65,5.98,1.94,1.61,1.29,2.62,3.06,3.03,5.29h-2.68c-.39-1.5-1.15-2.67-2.29-3.51-1.14-.84-2.53-1.26-4.17-1.26-1.48,0-2.78.36-3.91,1.08-1.13.72-1.99,1.72-2.6,3-.6,1.28-.91,2.75-.91,4.41s.3,3.11.91,4.4c.61,1.29,1.47,2.3,2.6,3.02,1.13.72,2.43,1.08,3.91,1.08,1.66,0,3.04-.41,4.15-1.24,1.11-.83,1.87-2.01,2.28-3.52h2.68c-.41,2.24-1.41,4-3,5.29-1.59,1.29-3.58,1.94-5.98,1.94-2.05,0-3.86-.46-5.41-1.37-1.56-.91-2.76-2.19-3.6-3.85s-1.26-3.56-1.26-5.74.42-4.06,1.26-5.72c.84-1.66,2.04-2.95,3.6-3.86"/>
        <path class="cls-18" d="M169.04,138.73c1.42-1.5,2.12-3.52,2.12-6.06s-.7-4.59-2.11-6.08c-1.4-1.49-3.4-2.23-5.98-2.23h-3.69v16.61h3.69c2.56,0,4.55-.75,5.97-2.24M163.08,121.9c2.22,0,4.14.45,5.77,1.34,1.63.89,2.88,2.15,3.75,3.77.87,1.62,1.31,3.51,1.31,5.66s-.43,4.01-1.31,5.64c-.87,1.63-2.12,2.89-3.75,3.78-1.63.89-3.55,1.34-5.77,1.34h-6.37v-21.53h6.37Z"/>
      </g>
      <polygon class="cls-18" points="189.81 121.9 189.81 124.36 178.76 124.36 178.76 131.25 187.96 131.25 187.96 133.71 178.76 133.71 178.76 140.97 190.21 140.97 190.21 143.43 176.09 143.43 176.09 121.9 189.81 121.9"/>
      <polygon class="cls-18" points="205.4 121.9 205.4 124.36 194.7 124.36 194.7 131.56 203.56 131.56 203.56 134.02 194.7 134.02 194.7 143.43 192.02 143.43 192.02 121.9 205.4 121.9"/>
      <path class="cls-18" d="M211.12,123.08c1.56-.91,3.36-1.37,5.41-1.37,2.38,0,4.37.65,5.98,1.94,1.61,1.29,2.62,3.05,3.03,5.26h-2.65c-.41-1.5-1.18-2.66-2.31-3.49-1.13-.83-2.5-1.25-4.12-1.25-1.48,0-2.78.36-3.92,1.08s-2.02,1.72-2.63,3.01-.92,2.76-.92,4.4.31,3.11.92,4.4,1.49,2.3,2.61,3.02c1.13.72,2.42,1.08,3.88,1.08,1.31,0,2.49-.25,3.52-.75,1.04-.5,1.85-1.22,2.43-2.15.58-.93.88-2.02.88-3.28v-.74h-6.46v-2.46h9.07v11.66h-2.22l-.28-3.41c-.59.96-1.49,1.8-2.68,2.52-1.19.72-2.62,1.08-4.31,1.08-1.97,0-3.72-.46-5.26-1.38-1.54-.92-2.73-2.21-3.58-3.86-.85-1.65-1.28-3.55-1.28-5.71s.42-4.06,1.26-5.72c.84-1.66,2.04-2.95,3.6-3.86"/>
      <polygon class="cls-18" points="231.52 121.87 231.52 131.25 242.65 131.25 242.65 121.87 245.33 121.87 245.33 143.43 242.65 143.43 242.65 133.71 231.52 133.71 231.52 143.43 228.84 143.43 228.84 121.87 231.52 121.87"/>
      <rect class="cls-18" x="248.31" y="121.9" width="2.68" height="21.53"/>
      <path class="cls-18" d="M260.55,138.36c0,1.66-.43,2.92-1.29,3.78-.86.86-2.12,1.29-3.78,1.29h-2.8v-2.52h2.46c.96,0,1.66-.22,2.09-.66.43-.44.65-1.14.65-2.11v-16.24h2.68v16.46Z"/>
      <polygon class="cls-18" points="266.21 121.9 266.21 134.11 277.07 121.9 280.33 121.9 272.46 130.97 280.95 143.43 277.75 143.43 270.49 133 266.21 137.83 266.21 143.43 263.54 143.43 263.54 121.9 266.21 121.9"/>
      <polygon class="cls-18" points="281.96 121.9 284.64 121.9 284.64 140.97 294.45 140.97 294.45 143.43 281.96 143.43 281.96 121.9"/>
      <polygon class="cls-18" points="299.49 121.9 307.12 139.77 314.66 121.9 317.98 121.9 317.98 143.43 315.37 143.43 315.37 126.45 308.23 143.43 305.86 143.43 298.73 126.45 298.73 143.43 296.11 143.43 296.11 121.9 299.49 121.9"/>
      <polygon class="cls-18" points="320.96 121.9 323.43 121.9 334.99 138.51 334.99 121.9 337.61 121.9 337.61 143.43 335.14 143.43 323.58 126.82 323.58 143.43 320.96 143.43 320.96 121.9"/>
      <g>
        <path class="cls-18" d="M104.62,170.52c1.14.73,2.45,1.09,3.92,1.09s2.78-.36,3.92-1.09c1.14-.73,2.02-1.73,2.66-3.01.64-1.28.95-2.74.95-4.38s-.32-3.1-.95-4.38c-.64-1.28-1.52-2.29-2.66-3.01-1.14-.73-2.45-1.09-3.92-1.09s-2.78.36-3.92,1.09c-1.14.73-2.03,1.73-2.66,3.01-.64,1.28-.95,2.74-.95,4.38s.32,3.1.95,4.38c.64,1.28,1.52,2.29,2.66,3.01M113.86,172.65c-1.56.94-3.33,1.41-5.32,1.41s-3.76-.47-5.32-1.41c-1.56-.94-2.77-2.24-3.65-3.91-.87-1.66-1.31-3.54-1.31-5.63s.44-3.97,1.31-5.63c.87-1.66,2.09-2.96,3.65-3.91,1.56-.94,3.33-1.41,5.32-1.41s3.76.47,5.32,1.41c1.56.94,2.77,2.24,3.65,3.91.87,1.66,1.31,3.54,1.31,5.63s-.43,3.97-1.31,5.63c-.87,1.66-2.09,2.96-3.65,3.91"/>
        <path class="cls-18" d="M129.03,163.15c1.42,0,2.54-.38,3.38-1.14.84-.76,1.26-1.77,1.26-3.05s-.41-2.28-1.25-3.03c-.83-.75-1.95-1.12-3.37-1.12h-5.38v8.34h5.35ZM133.03,153.17c1.09.54,1.92,1.31,2.51,2.31.58.99.88,2.16.88,3.49s-.3,2.5-.89,3.51c-.6,1.01-1.43,1.78-2.51,2.32-1.08.54-2.32.82-3.74.82h-5.6v8.27h-2.68v-21.53h8.27c1.41,0,2.67.27,3.75.82"/>
        <path class="cls-18" d="M151.57,169.21c-.29-.39-.57-.67-.86-.83-.29-.16-.62-.25-1.02-.25h-1.82v-2.46h2.25c.7,0,1.27.12,1.72.35.45.24.87.62,1.26,1.15l.68.92c.86-1.39,1.29-3.05,1.29-4.98,0-1.64-.32-3.1-.95-4.38-.64-1.28-1.52-2.29-2.66-3.02-1.14-.73-2.45-1.09-3.92-1.09s-2.78.36-3.92,1.09c-1.14.73-2.02,1.73-2.66,3.02-.64,1.28-.95,2.74-.95,4.38s.32,3.1.95,4.38c.64,1.28,1.52,2.29,2.66,3.02,1.14.73,2.45,1.09,3.92,1.09,1.78,0,3.32-.53,4.61-1.6l-.59-.8ZM159.14,173.88h-1.97c-.8,0-1.45-.11-1.94-.34-.49-.23-.93-.6-1.32-1.14l-.21-.31c-1.72,1.31-3.77,1.97-6.15,1.97-1.99,0-3.76-.47-5.32-1.41-1.56-.94-2.77-2.25-3.65-3.91-.87-1.66-1.31-3.54-1.31-5.63s.44-3.97,1.31-5.63c.87-1.66,2.09-2.96,3.65-3.91,1.56-.94,3.33-1.41,5.32-1.41s3.76.47,5.32,1.41c1.56.94,2.77,2.24,3.65,3.91.87,1.66,1.31,3.54,1.31,5.63,0,1.41-.21,2.74-.62,3.97-.41,1.23-.99,2.33-1.75,3.29.29.39.58.66.89.82s.69.23,1.14.23h1.66v2.46Z"/>
        <path class="cls-18" d="M168.15,163.15c1.42,0,2.54-.38,3.38-1.14.84-.76,1.26-1.77,1.26-3.05s-.42-2.25-1.26-3.01c-.84-.76-1.96-1.14-3.35-1.14h-5.38v8.34h5.35ZM172.12,153.17c1.09.54,1.93,1.31,2.52,2.31.6.99.89,2.16.89,3.49,0,1.5-.41,2.79-1.24,3.89-.83,1.1-1.94,1.84-3.34,2.23l4.83,8.8h-3.01l-4.46-8.27h-5.51v8.27h-2.68v-21.53h8.24c1.41,0,2.67.27,3.75.82"/>
        <path class="cls-18" d="M181.32,170.33c1.07.87,2.42,1.31,4.06,1.31,1.48,0,2.67-.32,3.58-.97.91-.65,1.37-1.54,1.37-2.69,0-.84-.25-1.51-.75-2-.5-.49-1.15-.86-1.94-1.09-.79-.24-1.86-.47-3.21-.69-2.15-.37-3.87-.97-5.14-1.82-1.27-.84-1.91-2.21-1.91-4.09,0-1.21.31-2.28.92-3.22.61-.93,1.48-1.66,2.6-2.17,1.12-.51,2.39-.77,3.83-.77,1.52,0,2.86.28,4.03.83,1.17.55,2.09,1.33,2.77,2.32.68.99,1.06,2.14,1.14,3.43h-2.64c-.16-1.25-.73-2.26-1.69-3.01-.96-.76-2.16-1.14-3.6-1.14s-2.57.31-3.41.94-1.26,1.5-1.26,2.63c0,.82.25,1.46.74,1.92.49.46,1.13.81,1.91,1.05.78.24,1.85.47,3.2.69,2.15.37,3.88.98,5.17,1.83,1.29.85,1.94,2.22,1.94,4.11,0,1.23-.32,2.33-.97,3.29-.65.96-1.55,1.71-2.71,2.25-1.16.53-2.49.8-3.98.8-1.68,0-3.15-.3-4.4-.91-1.25-.61-2.22-1.46-2.91-2.55-.69-1.1-1.06-2.35-1.12-3.77h2.65c.1,1.46.69,2.62,1.75,3.49"/>
      </g>
      <polygon class="cls-18" points="210.51 152.35 210.51 154.81 203.53 154.81 203.53 173.88 200.85 173.88 200.85 154.81 193.87 154.81 193.87 152.35 210.51 152.35"/>
      <path class="cls-18" d="M214.72,164.84c0,4.51,1.84,6.77,5.51,6.77s5.57-2.26,5.57-6.77v-12.49h2.68v12.34c0,3.08-.7,5.41-2.11,7-1.4,1.59-3.45,2.38-6.14,2.38s-4.72-.8-6.11-2.38c-1.38-1.59-2.08-3.92-2.08-7v-12.34h2.68v12.49Z"/>
      <polygon class="cls-18" points="232.35 152.35 238.93 170.71 245.48 152.35 248.25 152.35 240.5 173.88 237.27 173.88 229.52 152.35 232.35 152.35"/>
      <polygon class="cls-18" points="250.99 152.35 256.03 170.44 261.32 152.35 264.03 152.35 269.14 170.44 274.21 152.35 276.98 152.35 270.67 173.88 267.47 173.88 262.55 156.81 257.66 173.88 254.46 173.88 248.19 152.35 250.99 152.35"/>
      <polygon class="cls-18" points="277.99 152.35 281.13 152.35 286.58 160.72 292.08 152.35 294.97 152.35 288.11 162.87 295.44 173.88 292.27 173.88 286.36 165.02 280.42 173.88 277.53 173.88 284.85 162.87 277.99 152.35"/>
      <polygon class="cls-18" points="298.54 152.32 304.88 163.02 311.31 152.32 314.32 152.32 306.2 165.92 306.2 173.88 303.53 173.88 303.53 165.92 295.41 152.32 298.54 152.32"/>
      <polygon class="cls-18" points="330.78 152.35 330.78 154.29 317.92 171.42 331.18 171.42 331.18 173.88 314.32 173.88 314.32 171.94 327.18 154.81 314.72 154.81 314.72 152.35 330.78 152.35"/>
      <g>
        <path class="cls-18" d="M104.17,197.17c-2.34,0-3.51.87-3.51,2.61,0,.78.31,1.4.92,1.88.61.47,1.45.71,2.49.71,1.54,0,2.75-.41,3.63-1.22.88-.81,1.32-1.88,1.32-3.21v-.77h-4.86ZM113.37,204.33h-1.38c-1.01,0-1.72-.21-2.15-.61-.43-.41-.66-1.02-.68-1.82-1.21,1.74-2.96,2.61-5.26,2.61-1.74,0-3.14-.41-4.2-1.23-1.06-.82-1.58-1.94-1.58-3.35,0-1.58.54-2.79,1.61-3.63,1.08-.84,2.64-1.26,4.69-1.26h4.61v-1.08c0-1.02-.34-1.82-1.03-2.4-.69-.57-1.65-.86-2.88-.86-1.09,0-1.98.24-2.69.72-.71.48-1.14,1.12-1.31,1.92h-2.52c.18-1.54.87-2.74,2.05-3.6,1.18-.86,2.71-1.29,4.6-1.29,2.01,0,3.56.49,4.66,1.46,1.1.97,1.65,2.37,1.65,4.2v6.77c0,.76.35,1.14,1.05,1.14h.77v2.31Z"/>
        <path class="cls-18" d="M126.97,196.49c0-1.7-.48-3.09-1.43-4.17-.95-1.08-2.21-1.61-3.77-1.61-1.01,0-1.9.24-2.69.72-.79.48-1.4,1.16-1.83,2.03-.43.87-.65,1.86-.65,2.97s.22,2.14.65,3.03c.43.89,1.04,1.58,1.83,2.08.79.49,1.69.74,2.69.74,1.56,0,2.81-.54,3.77-1.61.95-1.08,1.43-2.47,1.43-4.17M128.58,192.18c.65,1.21.97,2.65.97,4.31s-.32,2.97-.97,4.18c-.65,1.21-1.54,2.15-2.69,2.83-1.15.68-2.44,1.02-3.88,1.02-1.27,0-2.36-.23-3.26-.69-.9-.46-1.61-1.09-2.12-1.89l-.34,2.4h-2.18v-21.53h2.52v8.37c1.31-1.8,3.11-2.71,5.38-2.71,1.46,0,2.75.32,3.89.95,1.14.64,2.03,1.56,2.68,2.77"/>
        <path class="cls-18" d="M138.32,204.52c-1.52,0-2.85-.34-4-1.02-1.15-.68-2.04-1.62-2.68-2.85-.64-1.22-.95-2.62-.95-4.2s.32-2.97.97-4.18c.65-1.21,1.55-2.15,2.72-2.81s2.51-1,4.03-1c1.85,0,3.37.49,4.57,1.48,1.2.98,1.95,2.34,2.26,4.06h-2.55c-.25-1.01-.76-1.8-1.54-2.4-.78-.59-1.72-.89-2.83-.89-1.5,0-2.71.53-3.65,1.6-.93,1.07-1.4,2.45-1.4,4.15s.47,3.12,1.4,4.2c.93,1.08,2.15,1.62,3.65,1.62,1.15,0,2.11-.3,2.89-.89.78-.59,1.28-1.41,1.51-2.46h2.52c-.33,1.74-1.1,3.11-2.31,4.11-1.21.99-2.75,1.49-4.61,1.49"/>
        <path class="cls-18" d="M158.71,199.52c.43-.87.65-1.86.65-2.97s-.22-2.14-.65-3.03c-.43-.89-1.04-1.58-1.83-2.08-.79-.49-1.69-.74-2.69-.74-1.56,0-2.82.54-3.77,1.61-.95,1.08-1.43,2.47-1.43,4.17s.48,3.09,1.43,4.17c.95,1.08,2.21,1.62,3.77,1.62,1.01,0,1.9-.24,2.69-.72.79-.48,1.4-1.16,1.83-2.03M161.85,204.33h-2.18l-.34-2.52c-1.31,1.8-3.11,2.71-5.38,2.71-1.46,0-2.75-.32-3.89-.95-1.14-.64-2.03-1.56-2.68-2.77-.65-1.21-.97-2.65-.97-4.31s.32-2.97.97-4.18c.65-1.21,1.54-2.15,2.69-2.83,1.15-.68,2.44-1.02,3.88-1.02,1.27,0,2.36.23,3.26.69.9.46,1.61,1.09,2.12,1.89v-8.24h2.52v21.53Z"/>
        <path class="cls-18" d="M174.32,191.78c-.87-.74-1.97-1.11-3.31-1.11-1.19,0-2.23.39-3.14,1.17-.9.78-1.41,1.79-1.54,3.05h9.47c-.12-1.33-.62-2.37-1.49-3.11M167.11,189.46c1.13-.67,2.42-1,3.88-1s2.71.3,3.81.89c1.11.59,1.98,1.46,2.61,2.58.64,1.13.97,2.45,1.02,3.97,0,.23-.02.59-.06,1.08h-12.18v.22c.04,1.54.51,2.77,1.41,3.69.9.92,2.08,1.38,3.54,1.38,1.13,0,2.09-.28,2.88-.85.79-.56,1.32-1.35,1.58-2.35h2.55c-.31,1.6-1.08,2.91-2.31,3.92-1.23,1.02-2.74,1.52-4.52,1.52-1.56,0-2.92-.33-4.09-1-1.17-.67-2.08-1.61-2.72-2.83-.65-1.22-.97-2.62-.97-4.2s.31-3.01.94-4.21c.62-1.21,1.5-2.15,2.63-2.81"/>
        <path class="cls-18" d="M181.16,186.89c0-1.39.32-2.42.97-3.09.65-.67,1.69-1,3.12-1h2.89v2.31h-2.74c-.61,0-1.06.13-1.32.4s-.4.71-.4,1.32v1.82h4.43v2.31h-4.43v13.38h-2.52v-13.38h-2.83v-2.31h2.83v-1.75Z"/>
        <path class="cls-18" d="M200.36,199.52c.43-.87.65-1.86.65-2.97s-.22-2.14-.65-3.03c-.43-.89-1.04-1.58-1.83-2.08-.79-.49-1.69-.74-2.69-.74-1.56,0-2.82.54-3.77,1.61-.95,1.08-1.43,2.47-1.43,4.17s.48,3.09,1.43,4.17c.95,1.08,2.21,1.61,3.77,1.61,1.01,0,1.9-.24,2.69-.72.79-.48,1.4-1.16,1.83-2.03M203.49,203.56c0,4.74-2.59,7.1-7.78,7.1-2.03,0-3.69-.46-4.97-1.38-1.28-.92-2.03-2.24-2.23-3.94h2.58c.21.98.73,1.74,1.57,2.28.84.53,1.92.8,3.23.8,3.38,0,5.08-1.65,5.08-4.95v-1.85c-1.13,1.93-2.92,2.89-5.38,2.89-1.46,0-2.75-.32-3.89-.95-1.14-.64-2.03-1.56-2.68-2.77-.65-1.21-.97-2.65-.97-4.31s.32-2.97.97-4.18,1.54-2.15,2.69-2.83c1.15-.68,2.44-1.02,3.88-1.02,1.27,0,2.36.25,3.26.75.9.5,1.61,1.22,2.12,2.14l.34-2.71h2.18v14.92Z"/>
        <path class="cls-18" d="M219.8,195.6v8.74h-2.52v-8.58c0-1.62-.37-2.85-1.11-3.71-.74-.85-1.79-1.28-3.17-1.28-1.46,0-2.61.51-3.46,1.54-.85,1.03-1.28,2.42-1.28,4.18v7.84h-2.52v-21.53h2.52v8.43c.51-.82,1.19-1.49,2.05-2s1.89-.77,3.12-.77c1.91,0,3.45.57,4.61,1.72,1.17,1.15,1.75,2.95,1.75,5.41"/>
        <path class="cls-18" d="M224.35,204.33h-2.52v-15.69h2.52v15.69ZM224.72,184.22c0,.47-.15.86-.46,1.17s-.7.46-1.17.46-.86-.15-1.17-.46c-.31-.31-.46-.7-.46-1.17s.15-.86.46-1.17c.31-.31.7-.46,1.17-.46s.86.15,1.17.46c.31.31.46.7.46,1.17"/>
        <path class="cls-18" d="M229.67,184.22c0,.47-.15.86-.46,1.17-.31.31-.7.46-1.17.46s-.86-.15-1.17-.46-.46-.7-.46-1.17.15-.86.46-1.17c.31-.31.7-.46,1.17-.46s.86.15,1.17.46c.31.31.46.7.46,1.17M226.38,207.78c.27-.27.4-.71.4-1.32v-17.81h2.52v17.75c0,1.39-.32,2.42-.97,3.09-.65.67-1.69,1-3.12,1h-2.12v-2.31h1.97c.61,0,1.06-.13,1.32-.4"/>
      </g>
      <polygon class="cls-18" points="234.07 182.8 234.07 197.07 242.04 188.65 245.05 188.65 239.02 195.07 245.48 204.33 242.44 204.33 237.21 196.89 234.07 200.18 234.07 204.33 231.55 204.33 231.55 182.8 234.07 182.8"/>
      <rect class="cls-18" x="246.25" y="182.8" width="2.52" height="21.53"/>
      <g>
        <path class="cls-18" d="M274.46,195.29v9.04h-2.52v-8.89c0-1.52-.32-2.68-.97-3.48-.65-.8-1.56-1.2-2.75-1.2-1.31,0-2.34.46-3.09,1.38-.75.92-1.12,2.18-1.12,3.78v8.4h-2.52v-8.89c0-1.52-.33-2.68-.99-3.48-.66-.8-1.59-1.2-2.8-1.2-1.27,0-2.28.49-3.03,1.46-.75.97-1.12,2.25-1.12,3.83v8.27h-2.52v-15.69h2.18l.34,2.15c1.13-1.56,2.66-2.34,4.58-2.34,1.13,0,2.13.25,3,.75.87.5,1.52,1.25,1.95,2.23,1.13-1.99,2.94-2.98,5.44-2.98,1.76,0,3.19.55,4.29,1.66,1.1,1.11,1.65,2.83,1.65,5.17"/>
        <path class="cls-18" d="M290.51,195.6v8.74h-2.52v-8.58c0-1.62-.36-2.85-1.09-3.71-.73-.85-1.78-1.28-3.15-1.28-1.48,0-2.63.51-3.48,1.54-.84,1.03-1.26,2.42-1.26,4.18v7.84h-2.52v-15.69h2.18l.34,2.12c1.19-1.54,2.91-2.31,5.17-2.31,1.91,0,3.44.57,4.6,1.72,1.16,1.15,1.74,2.95,1.74,5.41"/>
        <path class="cls-18" d="M110.48,229.41c.43-.88.65-1.88.65-2.98s-.21-2.1-.65-2.98c-.43-.88-1.04-1.57-1.83-2.06-.79-.49-1.7-.74-2.72-.74s-1.93.25-2.72.74c-.79.49-1.4,1.18-1.83,2.06-.43.88-.65,1.88-.65,2.98s.22,2.1.65,2.98c.43.88,1.04,1.57,1.83,2.06.79.49,1.7.74,2.72.74s1.93-.25,2.72-.74c.79-.49,1.4-1.18,1.83-2.06M99.13,230.61c-.66-1.21-.98-2.6-.98-4.18s.33-2.97.98-4.18c.66-1.21,1.57-2.15,2.75-2.83,1.18-.68,2.53-1.02,4.04-1.02s2.87.34,4.05,1.02c1.18.68,2.1,1.62,2.75,2.83.66,1.21.98,2.6.98,4.18s-.33,2.97-.98,4.18c-.66,1.21-1.57,2.15-2.75,2.83-1.18.68-2.53,1.01-4.05,1.01s-2.87-.34-4.04-1.01-2.1-1.62-2.75-2.83"/>
        <path class="cls-18" d="M128.26,226.43c0-1.7-.48-3.09-1.43-4.17-.95-1.08-2.21-1.61-3.77-1.61-1.01,0-1.9.24-2.69.72-.79.48-1.4,1.16-1.83,2.03-.43.87-.65,1.86-.65,2.97s.22,2.14.65,3.03c.43.89,1.04,1.58,1.83,2.08.79.49,1.69.74,2.69.74,1.56,0,2.81-.54,3.77-1.61.95-1.08,1.43-2.47,1.43-4.17M129.87,222.12c.65,1.21.97,2.65.97,4.31s-.32,2.97-.97,4.18c-.65,1.21-1.54,2.15-2.69,2.83-1.15.68-2.44,1.02-3.88,1.02-1.27,0-2.36-.23-3.26-.69-.9-.46-1.61-1.09-2.12-1.89v8.55h-2.52v-21.84h2.18l.34,2.52c1.31-1.8,3.11-2.71,5.38-2.71,1.46,0,2.75.32,3.89.95s2.03,1.56,2.68,2.77"/>
        <path class="cls-18" d="M144.28,229.46c.43-.87.65-1.86.65-2.97s-.21-2.14-.65-3.03c-.43-.89-1.04-1.58-1.83-2.08-.79-.49-1.69-.74-2.69-.74-1.56,0-2.82.54-3.77,1.61-.95,1.08-1.43,2.47-1.43,4.17s.48,3.09,1.43,4.17c.95,1.08,2.21,1.61,3.77,1.61,1.01,0,1.9-.24,2.69-.72.79-.48,1.4-1.16,1.83-2.03M147.42,240.42h-2.52v-8.67c-1.31,1.8-3.11,2.71-5.38,2.71-1.46,0-2.75-.32-3.89-.95-1.14-.64-2.03-1.56-2.68-2.77-.65-1.21-.97-2.64-.97-4.31s.32-2.97.97-4.18c.65-1.21,1.54-2.15,2.69-2.83,1.15-.68,2.44-1.01,3.88-1.01,1.27,0,2.36.23,3.26.69.9.46,1.61,1.09,2.12,1.89l.34-2.4h2.18v21.84Z"/>
        <path class="cls-18" d="M157.63,221.05h-1.26c-1.5,0-2.57.5-3.21,1.51-.65,1.01-.97,2.25-.97,3.72v8h-2.52v-15.69h2.18l.34,2.37c.45-.72,1.03-1.29,1.75-1.72.72-.43,1.71-.65,2.98-.65h.71v2.46Z"/>
        <path class="cls-18" d="M161.95,231.41c.79.59,1.81.89,3.06.89,1.11,0,2.01-.22,2.69-.66.69-.44,1.03-1.02,1.03-1.74,0-.62-.16-1.09-.49-1.41s-.75-.55-1.28-.68c-.52-.12-1.27-.25-2.23-.37-1.35-.16-2.46-.38-3.32-.65-.86-.27-1.56-.69-2.09-1.28-.53-.58-.8-1.39-.8-2.41,0-.92.26-1.74.78-2.46s1.24-1.28,2.14-1.68c.9-.4,1.92-.6,3.05-.6,1.84,0,3.35.43,4.51,1.29,1.16.86,1.8,2.09,1.92,3.69h-2.52c-.1-.82-.5-1.5-1.2-2.03-.7-.53-1.57-.8-2.61-.8s-1.93.22-2.58.66c-.66.44-.98,1.02-.98,1.74,0,.53.15.94.46,1.23.31.29.7.48,1.18.58.48.1,1.22.21,2.2.34,1.37.16,2.51.39,3.4.68.89.29,1.61.75,2.15,1.38.54.64.82,1.5.82,2.58,0,.94-.28,1.77-.83,2.49-.55.72-1.3,1.27-2.24,1.66-.94.39-1.99.58-3.14.58-2.05,0-3.7-.47-4.94-1.41-1.24-.94-1.87-2.26-1.89-3.94h2.52c.04.94.46,1.71,1.25,2.31"/>
        <path class="cls-18" d="M171.1,220.89v-2.31h2.83v-4.4h2.52v4.4h3.97v2.31h-3.97v9.26c0,.66.13,1.12.39,1.4.26.28.7.41,1.34.41h2.74v2.31h-2.89c-1.48,0-2.53-.33-3.15-.98s-.94-1.69-.94-3.11v-9.29h-2.83Z"/>
        <path class="cls-18" d="M195,234.27h-2.18l-.34-2.09c-1.19,1.52-2.86,2.28-5.01,2.28-1.87,0-3.36-.57-4.49-1.72-1.13-1.15-1.69-2.95-1.69-5.41v-8.74h2.52v8.58c0,1.62.35,2.85,1.06,3.71.71.85,1.72,1.28,3.03,1.28,1.43,0,2.56-.51,3.37-1.54.81-1.03,1.22-2.42,1.22-4.18v-7.84h2.52v15.69Z"/>
      </g>
      <polygon class="cls-18" points="198.39 218.58 203.13 231.41 207.83 218.58 210.48 218.58 204.6 234.27 201.56 234.27 195.68 218.58 198.39 218.58"/>
      <polygon class="cls-18" points="212.32 218.58 216.23 231.35 220.35 218.58 222.69 218.58 226.59 231.35 230.69 218.58 233.24 218.58 228.01 234.27 225.24 234.27 221.46 222.61 217.52 234.27 214.75 234.3 209.68 218.58 212.32 218.58"/>
      <polygon class="cls-18" points="232.93 218.58 235.95 218.58 240.13 224.4 244.37 218.58 247.17 218.58 241.57 226.21 247.57 234.27 244.56 234.27 239.94 227.97 235.33 234.27 232.53 234.27 238.5 226.21 232.93 218.58"/>
      <path class="cls-18" d="M254.28,231.38l4.67-12.8h2.68l-7.23,18.33c-.37.94-.7,1.65-.98,2.12-.29.47-.65.82-1.08,1.05-.43.23-1.01.34-1.72.34h-3.02v-2.31h2.25c.49,0,.86-.05,1.11-.15.25-.1.45-.27.6-.51.15-.23.34-.63.57-1.18l.8-1.88-6.15-15.81h2.68l4.83,12.8Z"/>
      <polygon class="cls-18" points="274.15 218.58 274.15 220.49 264.61 231.96 274.55 231.96 274.55 234.27 261.26 234.27 261.26 232.36 270.77 220.89 261.66 220.89 261.66 218.58 274.15 218.58"/>
      <g>
        <path class="cls-18" d="M109.51,246.36c-.83-.66-1.8-.98-2.91-.98s-2.08.33-2.92.98c-.84.66-1.49,1.6-1.95,2.83-.46,1.23-.69,2.69-.69,4.37v.8c0,1.68.23,3.14.69,4.37.46,1.23,1.11,2.17,1.95,2.83.84.66,1.82.98,2.92.98s2.08-.33,2.91-.98c.83-.66,1.48-1.6,1.94-2.83.46-1.23.69-2.69.69-4.37v-.8c0-1.68-.23-3.14-.69-4.37-.46-1.23-1.11-2.17-1.94-2.83M99.45,248.05c.69-1.58,1.65-2.81,2.89-3.71,1.24-.89,2.66-1.34,4.26-1.34s2.99.45,4.23,1.34c1.24.89,2.2,2.13,2.89,3.71.69,1.58,1.03,3.38,1.03,5.41v.98c0,2.11-.34,3.96-1.03,5.54-.69,1.58-1.64,2.79-2.88,3.65-1.23.85-2.65,1.28-4.24,1.28s-3.05-.42-4.28-1.28c-1.23-.85-2.19-2.07-2.88-3.65-.69-1.58-1.03-3.42-1.03-5.54v-.98c0-2.03.34-3.84,1.03-5.41"/>
        <path class="cls-18" d="M122.69,264.72h-2.58v-15.2c-.29.27-.78.4-1.48.4h-3.48v-2.31h3.51c.49,0,.87-.17,1.12-.51.26-.34.39-.78.39-1.34v-2.58h2.52v21.53Z"/>
        <path class="cls-18" d="M136.07,252.43c.61-.85.92-1.81.92-2.88,0-1.33-.43-2.38-1.28-3.14-.85-.76-1.99-1.14-3.43-1.14s-2.51.43-3.35,1.29c-.84.86-1.26,2.03-1.26,3.51v.4h-2.58v-.55c0-1.35.3-2.55.89-3.6.59-1.04,1.44-1.87,2.54-2.46,1.1-.59,2.35-.89,3.77-.89,2.3,0,4.1.58,5.4,1.75,1.3,1.17,1.95,2.74,1.95,4.71,0,1.03-.2,1.96-.6,2.8-.4.84-.92,1.61-1.55,2.29-.64.69-1.47,1.47-2.49,2.35l-6.46,5.47h11.26v2.37h-14.83v-2.18l8.37-7.26c1.21-1.05,2.12-1.99,2.74-2.84"/>
        <path class="cls-18" d="M156.96,258.75c0,1.21-.32,2.28-.97,3.21s-1.56,1.66-2.75,2.17c-1.19.51-2.56.77-4.12.77-2.38,0-4.28-.61-5.69-1.83-1.41-1.22-2.12-2.89-2.12-5h2.65c.02,1.4.52,2.5,1.49,3.31.97.81,2.25,1.21,3.83,1.21,1.46,0,2.66-.37,3.61-1.11.95-.74,1.43-1.71,1.43-2.92s-.46-2.05-1.38-2.71c-.92-.66-2.23-.98-3.91-.98h-1.85v-2.24h1.69c1.58,0,2.79-.35,3.63-1.05s1.26-1.61,1.26-2.74-.43-1.95-1.28-2.58c-.85-.64-1.94-.95-3.28-.95s-2.53.35-3.4,1.06c-.87.71-1.32,1.67-1.34,2.88h-2.58c.02-1.95.69-3.48,2-4.58,1.31-1.11,3.06-1.66,5.23-1.66,1.48,0,2.77.24,3.88.71,1.11.47,1.95,1.14,2.54,2,.58.86.88,1.86.88,2.98,0,1.31-.36,2.4-1.08,3.26-.72.86-1.69,1.41-2.92,1.66,1.27.25,2.35.82,3.23,1.71.88.89,1.32,2.03,1.32,3.43"/>
      </g>
      <path class="cls-18" d="M169.2,257.09v-11.01l-8.52,11.01h8.52ZM168.71,243.19h3.08v13.9h3.48v2.37h-3.48v5.26h-2.58v-5.26h-11.29v-2.31l10.8-13.97Z"/>
      <g>
        <path class="cls-18" d="M190.73,253.77c.59,1.09.89,2.34.89,3.75,0,1.54-.34,2.86-1.02,3.97-.68,1.11-1.59,1.95-2.74,2.52-1.15.57-2.41.86-3.78.86-1.56,0-2.91-.3-4.06-.91-1.15-.6-2.04-1.43-2.66-2.48-.62-1.04-.98-2.2-1.06-3.47h2.58c.12,1.29.65,2.37,1.58,3.24.93.87,2.14,1.31,3.61,1.31.86,0,1.67-.19,2.41-.57.75-.38,1.35-.95,1.8-1.71.45-.76.68-1.67.68-2.74,0-1.48-.44-2.68-1.32-3.6-.88-.92-2.06-1.38-3.54-1.38-.96,0-1.92.21-2.86.62-.94.41-1.62,1.18-2.03,2.31l-2.49-.06.71-12.24h12.8v2.37h-10.43l-.49,7.08c.64-.82,1.43-1.41,2.38-1.78.95-.37,1.92-.55,2.91-.55,1.35,0,2.56.31,3.63.92,1.07.61,1.9,1.47,2.49,2.55"/>
        <path class="cls-18" d="M201.37,252.76c-1.5,0-2.71.46-3.63,1.38s-1.39,2.12-1.39,3.6.45,2.64,1.35,3.54c.9.9,2.09,1.35,3.57,1.35s2.67-.46,3.57-1.38c.9-.92,1.35-2.11,1.35-3.57s-.43-2.64-1.31-3.55c-.87-.91-2.05-1.37-3.52-1.37M193.1,254.05c0-2.26.32-4.21.97-5.88s1.58-2.94,2.81-3.83c1.23-.89,2.7-1.34,4.4-1.34,1.95,0,3.55.54,4.81,1.61,1.26,1.08,2.03,2.52,2.29,4.32h-2.58c-.25-1.13-.76-2.02-1.55-2.68-.79-.66-1.82-.98-3.09-.98-1.85,0-3.28.76-4.29,2.28-1.02,1.52-1.52,3.52-1.52,6l.03,1.05c.06-.27.12-.46.18-.59.49-1.09,1.26-1.95,2.31-2.58,1.04-.64,2.28-.95,3.69-.95s2.67.3,3.75.89c1.09.6,1.94,1.43,2.55,2.52.62,1.09.92,2.35.92,3.78s-.32,2.61-.95,3.71c-.64,1.1-1.52,1.96-2.65,2.58-1.13.62-2.42.94-3.88.94s-2.73-.31-3.83-.94-1.99-1.5-2.69-2.63c-.53-.94-.95-2.04-1.25-3.29-.3-1.25-.45-2.58-.45-4"/>
      </g>
      <polygon class="cls-18" points="224.63 243.19 224.63 245.01 214.04 264.72 211.25 264.72 221.8 245.56 209.43 245.56 209.43 243.19 224.63 243.19"/>
      <g>
        <path class="cls-18" d="M233.45,252.3c1.35,0,2.46-.33,3.32-1,.86-.67,1.29-1.53,1.29-2.6s-.43-1.9-1.29-2.57c-.86-.67-1.97-1-3.32-1s-2.46.33-3.32,1c-.86.67-1.29,1.52-1.29,2.57s.43,1.93,1.29,2.6c.86.67,1.97,1,3.32,1M238.65,258.85c0-.76-.23-1.45-.68-2.06-.45-.62-1.07-1.1-1.86-1.45-.79-.35-1.68-.52-2.66-.52s-1.87.17-2.66.52c-.79.35-1.41.83-1.86,1.45-.45.61-.68,1.3-.68,2.06,0,1.15.49,2.09,1.48,2.83.98.74,2.23,1.11,3.72,1.11s2.76-.37,3.74-1.11c.97-.74,1.46-1.68,1.46-2.83M241.24,258.94c0,1.17-.31,2.2-.94,3.11-.63.9-1.53,1.6-2.71,2.11-1.18.5-2.56.75-4.14.75s-2.96-.25-4.14-.75c-1.18-.5-2.08-1.21-2.71-2.11-.62-.9-.94-1.94-.94-3.11,0-1.41.44-2.59,1.32-3.52.88-.93,2.03-1.55,3.45-1.86-1.21-.25-2.2-.8-2.98-1.68-.78-.87-1.17-1.93-1.17-3.18,0-1.13.29-2.12.88-2.98.58-.86,1.42-1.53,2.51-2.02,1.09-.48,2.35-.72,3.78-.72s2.7.24,3.78.72c1.09.48,1.92,1.15,2.51,2.02.59.86.88,1.86.88,2.98,0,1.23-.39,2.29-1.17,3.18-.78.89-1.77,1.45-2.98,1.68,1.41.29,2.56.9,3.45,1.83.88.93,1.32,2.12,1.32,3.55"/>
        <path class="cls-18" d="M250.34,255.16c1.5,0,2.71-.46,3.63-1.38s1.39-2.12,1.39-3.6-.45-2.64-1.35-3.54c-.9-.9-2.09-1.35-3.57-1.35s-2.67.46-3.57,1.38c-.9.92-1.35,2.11-1.35,3.57s.43,2.64,1.31,3.55c.87.91,2.05,1.37,3.52,1.37M258.61,253.86c0,2.26-.32,4.21-.97,5.88s-1.58,2.94-2.81,3.83c-1.23.89-2.7,1.34-4.4,1.34-1.95,0-3.55-.54-4.81-1.62-1.26-1.08-2.03-2.52-2.29-4.32h2.58c.24,1.13.76,2.02,1.55,2.68.79.66,1.82.98,3.09.98,1.85,0,3.28-.76,4.29-2.28,1.02-1.52,1.52-3.52,1.52-6l-.03-1.05c-.06.27-.12.46-.18.59-.49,1.09-1.26,1.95-2.31,2.58-1.05.64-2.28.95-3.69.95s-2.67-.3-3.75-.89c-1.09-.6-1.94-1.43-2.55-2.52-.62-1.09-.92-2.35-.92-3.78s.32-2.61.95-3.71c.64-1.1,1.52-1.96,2.65-2.58,1.13-.62,2.42-.94,3.88-.94s2.73.31,3.83.94c1.1.63,1.99,1.5,2.69,2.63.53.94.95,2.04,1.25,3.29.3,1.25.45,2.58.45,4"/>
      </g>
      <g class="cls-20">
        <g class="cls-9">
          <line class="cls-2" x1="1077.05" y1="527.25" x2="1077.05" y2="733.73"/>
          <line class="cls-2" x1="1083.53" y1="527.25" x2="1083.53" y2="733.73"/>
          <line class="cls-2" x1="1090.01" y1="527.25" x2="1090.01" y2="733.73"/>
          <line class="cls-2" x1="1096.49" y1="527.25" x2="1096.49" y2="733.73"/>
          <line class="cls-2" x1="1102.97" y1="527.25" x2="1102.97" y2="733.73"/>
          <line class="cls-2" x1="1109.45" y1="527.25" x2="1109.45" y2="733.73"/>
          <line class="cls-2" x1="1115.93" y1="527.25" x2="1115.93" y2="733.73"/>
          <line class="cls-2" x1="1122.41" y1="527.25" x2="1122.41" y2="733.73"/>
          <line class="cls-2" x1="1128.89" y1="527.25" x2="1128.89" y2="733.73"/>
          <line class="cls-2" x1="1135.37" y1="527.25" x2="1135.37" y2="733.73"/>
          <line class="cls-2" x1="1141.85" y1="527.25" x2="1141.85" y2="733.73"/>
          <line class="cls-2" x1="1148.33" y1="527.25" x2="1148.33" y2="733.73"/>
          <line class="cls-2" x1="1154.81" y1="527.25" x2="1154.81" y2="733.73"/>
          <line class="cls-2" x1="1161.29" y1="527.25" x2="1161.29" y2="733.73"/>
          <line class="cls-2" x1="1167.77" y1="527.25" x2="1167.77" y2="733.73"/>
          <line class="cls-2" x1="1174.25" y1="527.25" x2="1174.25" y2="733.73"/>
          <line class="cls-2" x1="1180.73" y1="527.25" x2="1180.73" y2="733.73"/>
          <line class="cls-2" x1="1187.21" y1="527.25" x2="1187.21" y2="733.73"/>
          <line class="cls-2" x1="1193.69" y1="527.25" x2="1193.69" y2="733.73"/>
          <line class="cls-2" x1="1200.17" y1="527.25" x2="1200.17" y2="733.73"/>
          <line class="cls-2" x1="1206.65" y1="527.25" x2="1206.65" y2="733.73"/>
          <line class="cls-2" x1="1213.13" y1="527.25" x2="1213.13" y2="733.73"/>
          <line class="cls-2" x1="1219.61" y1="527.25" x2="1219.61" y2="733.73"/>
          <line class="cls-2" x1="1226.09" y1="527.25" x2="1226.09" y2="733.73"/>
          <line class="cls-2" x1="1232.57" y1="527.25" x2="1232.57" y2="733.73"/>
          <line class="cls-2" x1="1239.05" y1="527.25" x2="1239.05" y2="733.73"/>
          <line class="cls-2" x1="1245.53" y1="527.25" x2="1245.53" y2="733.73"/>
          <line class="cls-2" x1="1252.01" y1="527.25" x2="1252.01" y2="733.73"/>
          <line class="cls-2" x1="1258.49" y1="527.25" x2="1258.49" y2="733.73"/>
          <line class="cls-2" x1="1264.97" y1="527.25" x2="1264.97" y2="733.73"/>
          <line class="cls-2" x1="1271.45" y1="527.25" x2="1271.45" y2="733.73"/>
          <line class="cls-2" x1="1284.41" y1="527.25" x2="1284.41" y2="733.73"/>
          <line class="cls-2" x1="1277.93" y1="527.25" x2="1277.93" y2="733.73"/>
          <line class="cls-2" x1="1077.05" y1="734.18" x2="1284.41" y2="734.18"/>
          <line class="cls-2" x1="1077.05" y1="727.7" x2="1284.41" y2="727.7"/>
          <line class="cls-2" x1="1077.05" y1="721.22" x2="1284.41" y2="721.22"/>
          <line class="cls-2" x1="1077.05" y1="714.74" x2="1284.41" y2="714.74"/>
          <line class="cls-2" x1="1077.05" y1="708.26" x2="1284.41" y2="708.26"/>
          <line class="cls-2" x1="1077.05" y1="701.78" x2="1284.41" y2="701.78"/>
          <line class="cls-2" x1="1077.05" y1="695.3" x2="1284.41" y2="695.3"/>
          <line class="cls-2" x1="1077.05" y1="688.82" x2="1284.41" y2="688.82"/>
          <line class="cls-2" x1="1077.05" y1="682.34" x2="1284.41" y2="682.34"/>
          <line class="cls-2" x1="1077.05" y1="675.86" x2="1284.41" y2="675.86"/>
          <line class="cls-2" x1="1077.05" y1="669.38" x2="1284.41" y2="669.38"/>
          <line class="cls-2" x1="1077.05" y1="662.9" x2="1284.41" y2="662.9"/>
          <line class="cls-2" x1="1077.05" y1="656.42" x2="1284.41" y2="656.42"/>
          <line class="cls-2" x1="1077.05" y1="649.94" x2="1284.41" y2="649.94"/>
          <line class="cls-2" x1="1077.05" y1="643.46" x2="1284.41" y2="643.46"/>
          <line class="cls-2" x1="1077.05" y1="636.97" x2="1284.41" y2="636.97"/>
          <line class="cls-2" x1="1077.05" y1="630.49" x2="1284.41" y2="630.49"/>
          <line class="cls-2" x1="1077.05" y1="624.01" x2="1284.41" y2="624.01"/>
          <line class="cls-2" x1="1077.05" y1="617.53" x2="1284.41" y2="617.53"/>
          <line class="cls-2" x1="1077.05" y1="611.05" x2="1284.41" y2="611.05"/>
          <line class="cls-2" x1="1077.05" y1="604.57" x2="1284.41" y2="604.57"/>
          <line class="cls-2" x1="1077.05" y1="598.09" x2="1284.41" y2="598.09"/>
          <line class="cls-2" x1="1077.05" y1="591.61" x2="1284.41" y2="591.61"/>
          <line class="cls-2" x1="1077.05" y1="585.13" x2="1284.41" y2="585.13"/>
          <line class="cls-2" x1="1077.05" y1="578.65" x2="1284.41" y2="578.65"/>
          <line class="cls-2" x1="1077.05" y1="572.17" x2="1284.41" y2="572.17"/>
          <line class="cls-2" x1="1077.05" y1="565.69" x2="1284.41" y2="565.69"/>
          <line class="cls-2" x1="1077.05" y1="559.21" x2="1284.41" y2="559.21"/>
          <line class="cls-2" x1="1077.05" y1="552.73" x2="1284.41" y2="552.73"/>
          <line class="cls-2" x1="1077.05" y1="546.25" x2="1284.41" y2="546.25"/>
          <line class="cls-2" x1="1077.05" y1="539.77" x2="1284.41" y2="539.77"/>
          <line class="cls-2" x1="1077.05" y1="526.81" x2="1284.41" y2="526.81"/>
          <line class="cls-2" x1="1077.05" y1="533.29" x2="1284.41" y2="533.29"/>
        </g>
        <g class="cls-12">
          <line class="cls-2" x1="848.74" y1="527.25" x2="848.74" y2="733.73"/>
          <line class="cls-2" x1="855.22" y1="527.25" x2="855.22" y2="733.73"/>
          <line class="cls-2" x1="861.7" y1="527.25" x2="861.7" y2="733.73"/>
          <line class="cls-2" x1="868.18" y1="527.25" x2="868.18" y2="733.73"/>
          <line class="cls-2" x1="874.66" y1="527.25" x2="874.66" y2="733.73"/>
          <line class="cls-2" x1="881.14" y1="527.25" x2="881.14" y2="733.73"/>
          <line class="cls-2" x1="887.62" y1="527.25" x2="887.62" y2="733.73"/>
          <line class="cls-2" x1="894.1" y1="527.25" x2="894.1" y2="733.73"/>
          <line class="cls-2" x1="900.58" y1="527.25" x2="900.58" y2="733.73"/>
          <line class="cls-2" x1="907.06" y1="527.25" x2="907.06" y2="733.73"/>
          <line class="cls-2" x1="913.54" y1="527.25" x2="913.54" y2="733.73"/>
          <line class="cls-2" x1="920.02" y1="527.25" x2="920.02" y2="733.73"/>
          <line class="cls-2" x1="926.5" y1="527.25" x2="926.5" y2="733.73"/>
          <line class="cls-2" x1="932.98" y1="527.25" x2="932.98" y2="733.73"/>
          <line class="cls-2" x1="939.46" y1="527.25" x2="939.46" y2="733.73"/>
          <line class="cls-2" x1="945.94" y1="527.25" x2="945.94" y2="733.73"/>
          <line class="cls-2" x1="952.42" y1="527.25" x2="952.42" y2="733.73"/>
          <line class="cls-2" x1="958.9" y1="527.25" x2="958.9" y2="733.73"/>
          <line class="cls-2" x1="965.38" y1="527.25" x2="965.38" y2="733.73"/>
          <line class="cls-2" x1="971.86" y1="527.25" x2="971.86" y2="733.73"/>
          <line class="cls-2" x1="978.34" y1="527.25" x2="978.34" y2="733.73"/>
          <line class="cls-2" x1="984.82" y1="527.25" x2="984.82" y2="733.73"/>
          <line class="cls-2" x1="991.3" y1="527.25" x2="991.3" y2="733.73"/>
          <line class="cls-2" x1="997.78" y1="527.25" x2="997.78" y2="733.73"/>
          <line class="cls-2" x1="1004.26" y1="527.25" x2="1004.26" y2="733.73"/>
          <line class="cls-2" x1="1010.74" y1="527.25" x2="1010.74" y2="733.73"/>
          <line class="cls-2" x1="1017.22" y1="527.25" x2="1017.22" y2="733.73"/>
          <line class="cls-2" x1="1023.7" y1="527.25" x2="1023.7" y2="733.73"/>
          <line class="cls-2" x1="1030.18" y1="527.25" x2="1030.18" y2="733.73"/>
          <line class="cls-2" x1="1036.66" y1="527.25" x2="1036.66" y2="733.73"/>
          <line class="cls-2" x1="1043.14" y1="527.25" x2="1043.14" y2="733.73"/>
          <line class="cls-2" x1="1056.1" y1="527.25" x2="1056.1" y2="733.73"/>
          <line class="cls-2" x1="1049.62" y1="527.25" x2="1049.62" y2="733.73"/>
          <line class="cls-2" x1="848.74" y1="734.18" x2="1056.1" y2="734.18"/>
          <line class="cls-2" x1="848.74" y1="727.7" x2="1056.1" y2="727.7"/>
          <line class="cls-2" x1="848.74" y1="721.22" x2="1056.1" y2="721.22"/>
          <line class="cls-2" x1="848.74" y1="714.74" x2="1056.1" y2="714.74"/>
          <line class="cls-2" x1="848.74" y1="708.26" x2="1056.1" y2="708.26"/>
          <line class="cls-2" x1="848.74" y1="701.78" x2="1056.1" y2="701.78"/>
          <line class="cls-2" x1="848.74" y1="695.3" x2="1056.1" y2="695.3"/>
          <line class="cls-2" x1="848.74" y1="688.82" x2="1056.1" y2="688.82"/>
          <line class="cls-2" x1="848.74" y1="682.34" x2="1056.1" y2="682.34"/>
          <line class="cls-2" x1="848.74" y1="675.86" x2="1056.1" y2="675.86"/>
          <line class="cls-2" x1="848.74" y1="669.38" x2="1056.1" y2="669.38"/>
          <line class="cls-2" x1="848.74" y1="662.9" x2="1056.1" y2="662.9"/>
          <line class="cls-2" x1="848.74" y1="656.42" x2="1056.1" y2="656.42"/>
          <line class="cls-2" x1="848.74" y1="649.94" x2="1056.1" y2="649.94"/>
          <line class="cls-2" x1="848.74" y1="643.46" x2="1056.1" y2="643.46"/>
          <line class="cls-2" x1="848.74" y1="636.97" x2="1056.1" y2="636.97"/>
          <line class="cls-2" x1="848.74" y1="630.49" x2="1056.1" y2="630.49"/>
          <line class="cls-2" x1="848.74" y1="624.01" x2="1056.1" y2="624.01"/>
          <line class="cls-2" x1="848.74" y1="617.53" x2="1056.1" y2="617.53"/>
          <line class="cls-2" x1="848.74" y1="611.05" x2="1056.1" y2="611.05"/>
          <line class="cls-2" x1="848.74" y1="604.57" x2="1056.1" y2="604.57"/>
          <line class="cls-2" x1="848.74" y1="598.09" x2="1056.1" y2="598.09"/>
          <line class="cls-2" x1="848.74" y1="591.61" x2="1056.1" y2="591.61"/>
          <line class="cls-2" x1="848.74" y1="585.13" x2="1056.1" y2="585.13"/>
          <line class="cls-2" x1="848.74" y1="578.65" x2="1056.1" y2="578.65"/>
          <line class="cls-2" x1="848.74" y1="572.17" x2="1056.1" y2="572.17"/>
          <line class="cls-2" x1="848.74" y1="565.69" x2="1056.1" y2="565.69"/>
          <line class="cls-2" x1="848.74" y1="559.21" x2="1056.1" y2="559.21"/>
          <line class="cls-2" x1="848.74" y1="552.73" x2="1056.1" y2="552.73"/>
          <line class="cls-2" x1="848.74" y1="546.25" x2="1056.1" y2="546.25"/>
          <line class="cls-2" x1="848.74" y1="539.77" x2="1056.1" y2="539.77"/>
          <line class="cls-2" x1="848.74" y1="526.81" x2="1056.1" y2="526.81"/>
          <line class="cls-2" x1="848.74" y1="533.29" x2="1056.1" y2="533.29"/>
        </g>
        <g class="cls-10">
          <line class="cls-2" x1="620.82" y1="527.25" x2="620.82" y2="733.73"/>
          <line class="cls-2" x1="627.3" y1="527.25" x2="627.3" y2="733.73"/>
          <line class="cls-2" x1="633.78" y1="527.25" x2="633.78" y2="733.73"/>
          <line class="cls-2" x1="640.26" y1="527.25" x2="640.26" y2="733.73"/>
          <line class="cls-2" x1="646.74" y1="527.25" x2="646.74" y2="733.73"/>
          <line class="cls-2" x1="653.22" y1="527.25" x2="653.22" y2="733.73"/>
          <line class="cls-2" x1="659.7" y1="527.25" x2="659.7" y2="733.73"/>
          <line class="cls-2" x1="666.18" y1="527.25" x2="666.18" y2="733.73"/>
          <line class="cls-2" x1="672.66" y1="527.25" x2="672.66" y2="733.73"/>
          <line class="cls-2" x1="679.14" y1="527.25" x2="679.14" y2="733.73"/>
          <line class="cls-2" x1="685.63" y1="527.25" x2="685.63" y2="733.73"/>
          <line class="cls-2" x1="692.11" y1="527.25" x2="692.11" y2="733.73"/>
          <line class="cls-2" x1="698.59" y1="527.25" x2="698.59" y2="733.73"/>
          <line class="cls-2" x1="705.07" y1="527.25" x2="705.07" y2="733.73"/>
          <line class="cls-2" x1="711.55" y1="527.25" x2="711.55" y2="733.73"/>
          <line class="cls-2" x1="718.03" y1="527.25" x2="718.03" y2="733.73"/>
          <line class="cls-2" x1="724.51" y1="527.25" x2="724.51" y2="733.73"/>
          <line class="cls-2" x1="730.99" y1="527.25" x2="730.99" y2="733.73"/>
          <line class="cls-2" x1="737.47" y1="527.25" x2="737.47" y2="733.73"/>
          <line class="cls-2" x1="743.95" y1="527.25" x2="743.95" y2="733.73"/>
          <line class="cls-2" x1="750.43" y1="527.25" x2="750.43" y2="733.73"/>
          <line class="cls-2" x1="756.91" y1="527.25" x2="756.91" y2="733.73"/>
          <line class="cls-2" x1="763.39" y1="527.25" x2="763.39" y2="733.73"/>
          <line class="cls-2" x1="769.87" y1="527.25" x2="769.87" y2="733.73"/>
          <line class="cls-2" x1="776.35" y1="527.25" x2="776.35" y2="733.73"/>
          <line class="cls-2" x1="782.83" y1="527.25" x2="782.83" y2="733.73"/>
          <line class="cls-2" x1="789.31" y1="527.25" x2="789.31" y2="733.73"/>
          <line class="cls-2" x1="795.79" y1="527.25" x2="795.79" y2="733.73"/>
          <line class="cls-2" x1="802.27" y1="527.25" x2="802.27" y2="733.73"/>
          <line class="cls-2" x1="808.75" y1="527.25" x2="808.75" y2="733.73"/>
          <line class="cls-2" x1="815.23" y1="527.25" x2="815.23" y2="733.73"/>
          <g class="cls-11">
            <line class="cls-2" x1="828.19" y1="527.25" x2="828.19" y2="733.73"/>
          </g>
          <line class="cls-2" x1="821.71" y1="527.25" x2="821.71" y2="733.73"/>
          <line class="cls-2" x1="620.82" y1="734.18" x2="828.19" y2="734.18"/>
          <line class="cls-2" x1="620.82" y1="727.7" x2="828.19" y2="727.7"/>
          <line class="cls-2" x1="620.82" y1="721.22" x2="828.19" y2="721.22"/>
          <line class="cls-2" x1="620.82" y1="714.74" x2="828.19" y2="714.74"/>
          <line class="cls-2" x1="620.82" y1="708.26" x2="828.19" y2="708.26"/>
          <line class="cls-2" x1="620.82" y1="701.78" x2="828.19" y2="701.78"/>
          <line class="cls-2" x1="620.82" y1="695.3" x2="828.19" y2="695.3"/>
          <line class="cls-2" x1="620.82" y1="688.82" x2="828.19" y2="688.82"/>
          <line class="cls-2" x1="620.82" y1="682.34" x2="828.19" y2="682.34"/>
          <line class="cls-2" x1="620.82" y1="675.86" x2="828.19" y2="675.86"/>
          <line class="cls-2" x1="620.82" y1="669.38" x2="828.19" y2="669.38"/>
          <line class="cls-2" x1="620.82" y1="662.9" x2="828.19" y2="662.9"/>
          <line class="cls-2" x1="620.82" y1="656.42" x2="828.19" y2="656.42"/>
          <line class="cls-2" x1="620.82" y1="649.94" x2="828.19" y2="649.94"/>
          <line class="cls-2" x1="620.82" y1="643.46" x2="828.19" y2="643.46"/>
          <line class="cls-2" x1="620.82" y1="636.97" x2="828.19" y2="636.97"/>
          <line class="cls-2" x1="620.82" y1="630.49" x2="828.19" y2="630.49"/>
          <line class="cls-2" x1="620.82" y1="624.01" x2="828.19" y2="624.01"/>
          <line class="cls-2" x1="620.82" y1="617.53" x2="828.19" y2="617.53"/>
          <line class="cls-2" x1="620.82" y1="611.05" x2="828.19" y2="611.05"/>
          <line class="cls-2" x1="620.82" y1="604.57" x2="828.19" y2="604.57"/>
          <line class="cls-2" x1="620.82" y1="598.09" x2="828.19" y2="598.09"/>
          <line class="cls-2" x1="620.82" y1="591.61" x2="828.19" y2="591.61"/>
          <line class="cls-2" x1="620.82" y1="585.13" x2="828.19" y2="585.13"/>
          <line class="cls-2" x1="620.82" y1="578.65" x2="828.19" y2="578.65"/>
          <line class="cls-2" x1="620.82" y1="572.17" x2="828.19" y2="572.17"/>
          <line class="cls-2" x1="620.82" y1="565.69" x2="828.19" y2="565.69"/>
          <line class="cls-2" x1="620.82" y1="559.21" x2="828.19" y2="559.21"/>
          <line class="cls-2" x1="620.82" y1="552.73" x2="828.19" y2="552.73"/>
          <line class="cls-2" x1="620.82" y1="546.25" x2="828.19" y2="546.25"/>
          <line class="cls-2" x1="620.82" y1="539.77" x2="828.19" y2="539.77"/>
          <line class="cls-2" x1="620.82" y1="526.81" x2="828.19" y2="526.81"/>
          <line class="cls-2" x1="620.82" y1="533.29" x2="828.19" y2="533.29"/>
        </g>
        <g class="cls-17">
          <line class="cls-2" x1="1305.36" y1="527.25" x2="1305.36" y2="733.73"/>
          <line class="cls-2" x1="1311.84" y1="527.25" x2="1311.84" y2="733.73"/>
          <line class="cls-2" x1="1318.32" y1="527.25" x2="1318.32" y2="733.73"/>
          <line class="cls-2" x1="1324.8" y1="527.25" x2="1324.8" y2="733.73"/>
          <line class="cls-2" x1="1331.29" y1="527.25" x2="1331.29" y2="733.73"/>
          <line class="cls-2" x1="1337.77" y1="527.25" x2="1337.77" y2="733.73"/>
          <line class="cls-2" x1="1344.25" y1="527.25" x2="1344.25" y2="733.73"/>
          <line class="cls-2" x1="1350.73" y1="527.25" x2="1350.73" y2="733.73"/>
          <line class="cls-2" x1="1357.21" y1="527.25" x2="1357.21" y2="733.73"/>
          <line class="cls-2" x1="1363.69" y1="527.25" x2="1363.69" y2="733.73"/>
          <line class="cls-2" x1="1370.17" y1="527.25" x2="1370.17" y2="733.73"/>
          <line class="cls-2" x1="1376.65" y1="527.25" x2="1376.65" y2="733.73"/>
          <line class="cls-2" x1="1383.13" y1="527.25" x2="1383.13" y2="733.73"/>
          <line class="cls-2" x1="1389.61" y1="527.25" x2="1389.61" y2="733.73"/>
          <line class="cls-2" x1="1396.09" y1="527.25" x2="1396.09" y2="733.73"/>
          <line class="cls-2" x1="1402.57" y1="527.25" x2="1402.57" y2="733.73"/>
          <line class="cls-2" x1="1409.05" y1="527.25" x2="1409.05" y2="733.73"/>
          <line class="cls-2" x1="1415.53" y1="527.25" x2="1415.53" y2="733.73"/>
          <line class="cls-2" x1="1422.01" y1="527.25" x2="1422.01" y2="733.73"/>
          <line class="cls-2" x1="1428.49" y1="527.25" x2="1428.49" y2="733.73"/>
          <line class="cls-2" x1="1434.97" y1="527.25" x2="1434.97" y2="733.73"/>
          <line class="cls-2" x1="1441.45" y1="527.25" x2="1441.45" y2="733.73"/>
          <line class="cls-2" x1="1447.93" y1="527.25" x2="1447.93" y2="733.73"/>
          <line class="cls-2" x1="1454.41" y1="527.25" x2="1454.41" y2="733.73"/>
          <line class="cls-2" x1="1460.89" y1="527.25" x2="1460.89" y2="733.73"/>
          <line class="cls-2" x1="1467.37" y1="527.25" x2="1467.37" y2="733.73"/>
          <line class="cls-2" x1="1473.85" y1="527.25" x2="1473.85" y2="733.73"/>
          <line class="cls-2" x1="1480.33" y1="527.25" x2="1480.33" y2="733.73"/>
          <line class="cls-2" x1="1486.81" y1="527.25" x2="1486.81" y2="733.73"/>
          <line class="cls-2" x1="1493.29" y1="527.25" x2="1493.29" y2="733.73"/>
          <line class="cls-2" x1="1499.77" y1="527.25" x2="1499.77" y2="733.73"/>
          <g class="cls-14">
            <line class="cls-2" x1="1512.73" y1="527.25" x2="1512.73" y2="733.73"/>
          </g>
          <line class="cls-2" x1="1506.25" y1="527.25" x2="1506.25" y2="733.73"/>
          <line class="cls-2" x1="1305.36" y1="734.18" x2="1512.73" y2="734.18"/>
          <line class="cls-2" x1="1305.36" y1="727.7" x2="1512.73" y2="727.7"/>
          <line class="cls-2" x1="1305.36" y1="721.22" x2="1512.73" y2="721.22"/>
          <line class="cls-2" x1="1305.36" y1="714.74" x2="1512.73" y2="714.74"/>
          <line class="cls-2" x1="1305.36" y1="708.26" x2="1512.73" y2="708.26"/>
          <line class="cls-2" x1="1305.36" y1="701.78" x2="1512.73" y2="701.78"/>
          <line class="cls-2" x1="1305.36" y1="695.3" x2="1512.73" y2="695.3"/>
          <line class="cls-2" x1="1305.36" y1="688.82" x2="1512.73" y2="688.82"/>
          <line class="cls-2" x1="1305.36" y1="682.34" x2="1512.73" y2="682.34"/>
          <line class="cls-2" x1="1305.36" y1="675.86" x2="1512.73" y2="675.86"/>
          <line class="cls-2" x1="1305.36" y1="669.38" x2="1512.73" y2="669.38"/>
          <line class="cls-2" x1="1305.36" y1="662.9" x2="1512.73" y2="662.9"/>
          <line class="cls-2" x1="1305.36" y1="656.42" x2="1512.73" y2="656.42"/>
          <line class="cls-2" x1="1305.36" y1="649.94" x2="1512.73" y2="649.94"/>
          <line class="cls-2" x1="1305.36" y1="643.46" x2="1512.73" y2="643.46"/>
          <line class="cls-2" x1="1305.36" y1="636.97" x2="1512.73" y2="636.97"/>
          <line class="cls-2" x1="1305.36" y1="630.49" x2="1512.73" y2="630.49"/>
          <line class="cls-2" x1="1305.36" y1="624.01" x2="1512.73" y2="624.01"/>
          <line class="cls-2" x1="1305.36" y1="617.53" x2="1512.73" y2="617.53"/>
          <line class="cls-2" x1="1305.36" y1="611.05" x2="1512.73" y2="611.05"/>
          <line class="cls-2" x1="1305.36" y1="604.57" x2="1512.73" y2="604.57"/>
          <line class="cls-2" x1="1305.36" y1="598.09" x2="1512.73" y2="598.09"/>
          <line class="cls-2" x1="1305.36" y1="591.61" x2="1512.73" y2="591.61"/>
          <line class="cls-2" x1="1305.36" y1="585.13" x2="1512.73" y2="585.13"/>
          <line class="cls-2" x1="1305.36" y1="578.65" x2="1512.73" y2="578.65"/>
          <line class="cls-2" x1="1305.36" y1="572.17" x2="1512.73" y2="572.17"/>
          <line class="cls-2" x1="1305.36" y1="565.69" x2="1512.73" y2="565.69"/>
          <line class="cls-2" x1="1305.36" y1="559.21" x2="1512.73" y2="559.21"/>
          <line class="cls-2" x1="1305.36" y1="552.73" x2="1512.73" y2="552.73"/>
          <line class="cls-2" x1="1305.36" y1="546.25" x2="1512.73" y2="546.25"/>
          <line class="cls-2" x1="1305.36" y1="539.77" x2="1512.73" y2="539.77"/>
          <line class="cls-2" x1="1305.36" y1="526.81" x2="1512.73" y2="526.81"/>
          <line class="cls-2" x1="1305.36" y1="533.29" x2="1512.73" y2="533.29"/>
        </g>
        <path class="cls-18" d="M857.26,321.36c10.52-17.03,15.78-37.32,15.78-60.87,0-20.04-3.88-37.89-11.65-53.54-7.77-15.66-18.6-27.93-32.51-36.82-13.91-8.89-29.88-13.34-47.92-13.34s-34.01,4.45-47.92,13.34c-13.91,8.89-24.74,21.16-32.51,36.82-7.77,15.66-11.65,33.5-11.65,53.54s3.88,37.88,11.65,53.54c7.77,15.65,18.6,27.93,32.51,36.82,13.9,8.89,29.88,13.34,47.92,13.34,21.78,0,40.56-6.5,56.34-19.51l18.77,25.52.02.03c-21.04,16.01-46.08,24.02-75.13,24.02-24.3,0-45.98-5.76-65.02-17.28-19.04-11.52-33.89-27.43-44.53-47.72-10.65-20.29-15.97-43.21-15.97-68.76s5.32-48.47,15.97-68.76c10.65-20.29,25.49-36.19,44.53-47.72,19.04-11.52,40.71-17.28,65.02-17.28s45.98,5.76,65.02,17.28c19.04,11.52,33.89,27.43,44.54,47.72,10.65,20.29,15.97,43.21,15.97,68.76,0,17.28-2.51,33.44-7.52,48.47-5.01,15.03-12.15,28.43-21.42,40.2"/>
        <path class="cls-18" d="M1071.11,313.84c0,16.28-5.39,29.37-16.16,39.26-10.77,9.89-25.56,14.84-44.35,14.84-12.78,0-22.92-2.88-30.44-8.64-7.52-5.76-11.28-13.4-11.28-22.92,0-21.29,14.28-31.94,42.85-31.94h59.38v9.39ZM1072.51,362.46v-21.81h29.42v-73.39c0-22.29-6.7-39.39-20.11-51.29-13.4-11.9-32.38-17.85-56.94-17.85-23.05,0-41.78,5.26-56.18,15.78-14.41,10.52-22.74,25.17-24.99,43.96h30.82c2-9.77,7.33-17.6,15.97-23.48,8.64-5.89,19.61-8.83,32.89-8.83,15.03,0,26.75,3.51,35.14,10.52,8.39,7.01,12.59,16.78,12.59,29.31v13.15h-56.38c-25.05,0-44.16,5.14-57.31,15.4-13.15,10.27-19.73,25.05-19.73,44.34,0,17.28,6.45,30.94,19.36,40.95,12.9,10.02,30,15.03,51.3,15.03,28.06,0,49.48-10.65,64.27-31.94l-.1.15Z"/>
        <g class="cls-13">
          <g class="cls-16">
            <rect class="cls-18" x="620.13" y="391.88" width="891.93" height=".24"/>
          </g>
        </g>
        <g class="cls-15">
          <g class="cls-5">
            <rect class="cls-18" x="620.13" y="466.53" width="891.93" height=".24"/>
          </g>
        </g>
        <rect class="cls-18" x="1133.12" y="438.96" width="13.44" height="28.18"/>
        <polygon class="cls-18" points="1304.5 200.37 1271.8 200.37 1214.67 356.68 1155.67 200.37 1122.97 200.37 1198.14 393.5 1188.69 415.65 1219.59 415.65 1304.5 200.37"/>
        <path class="cls-19" d="M1188.69,415.65l-.33.77c-.17.42-.34.84-.51,1.24-1.69,4.07-3.21,7.39-4.55,9.95-.13.26-.27.5-.4.74-.26.48-.52.93-.77,1.36-.25.42-.49.81-.72,1.17-.23.36-.48.71-.73,1.04-.51.67-1.05,1.29-1.62,1.86-.58.57-1.19,1.08-1.83,1.55s-1.33.88-2.05,1.24c-.36.18-.72.35-1.1.51-1.88.78-4.35,1.32-7.4,1.62-.61.06-1.24.11-1.9.15-.66.04-1.34.07-2.04.09-.71.02-1.43.03-2.18.03h-14v28.18h23.39c2.19,0,4.27-.09,6.25-.26.49-.04.98-.09,1.46-.15.96-.11,1.89-.23,2.79-.39.45-.08.9-.16,1.34-.24.88-.17,1.73-.37,2.55-.58,1.23-.32,2.41-.69,3.51-1.11.74-.28,1.45-.58,2.14-.91.34-.16.68-.33,1.01-.5.66-.34,1.3-.71,1.93-1.1.31-.2.63-.4.93-.6.62-.41,1.22-.85,1.81-1.32,2.95-2.31,5.55-5.21,7.81-8.69.23-.35.45-.7.67-1.06,1.75-2.88,3.63-6.48,5.64-10.8,2-4.32,4.13-9.36,6.39-15.12l3.42-8.66h-30.9Z"/>
        <polyline class="cls-18" points="1358.24 228.56 1406.72 228.56 1406.72 200.37 1358.24 200.37 1358.24 146.65 1327.42 146.65 1327.42 326.41 1358.24 326.41"/>
        <rect class="cls-18" x="1394.82" y="363.81" width="17.92" height="28.18"/>
        <path class="cls-19" d="M1379.29,363.82c-7.77,0-13.22-1.69-16.35-5.07-.2-.21-.38-.43-.57-.66-.37-.46-.71-.95-1.03-1.49-.32-.53-.61-1.1-.88-1.7-.13-.3-.26-.61-.38-.93-.21-.55-.39-1.12-.57-1.72-.15-.53-.29-1.08-.42-1.65-.23-1.06-.42-2.18-.56-3.37-.2-1.71-.29-3.57-.29-5.58v-15.24h-30.82v15.62c0,4.32.24,8.35.72,12.09.24,1.87.54,3.67.9,5.4s.78,3.38,1.25,4.96c.24.79.49,1.56.76,2.32.13.38.27.75.41,1.12.2.53.42,1.04.63,1.55.17.39.34.78.52,1.16.24.5.48,1,.73,1.49.34.66.7,1.31,1.07,1.94.31.52.63,1.03.96,1.52.27.4.54.8.82,1.18.42.57.85,1.13,1.3,1.67.45.54.91,1.06,1.39,1.56.96,1,1.99,1.94,3.11,2.82.84.66,1.72,1.28,2.65,1.87.31.19.63.39.94.58.64.38,1.3.74,1.98,1.08.68.34,1.38.67,2.1.98.72.31,1.46.61,2.22.89,3.43,1.27,7.27,2.22,11.52,2.85,1.42.21,2.88.39,4.39.53.5.05,1.01.09,1.53.13,2.56.2,5.26.3,8.07.3h17.41v-28.18h-15.53Z"/>
        <rect class="cls-18" x="1491.65" y="128.99" width="20.3" height="28.18"/>
        <polygon class="cls-18" points="1434.53 187.32 1434.53 391.99 1465.35 391.99 1465.35 228.56 1511.95 228.56 1511.95 200.37 1465.35 200.37 1465.35 187.32 1434.53 187.32"/>
        <path class="cls-19" d="M1465.35,178.21h0c0-1.45.06-2.83.19-4.12.07-.8.17-1.56.29-2.3.18-1.08.41-2.08.68-3.03.12-.42.25-.82.39-1.21.23-.64.48-1.25.76-1.82.28-.57.58-1.11.92-1.62.17-.25.34-.5.52-.74.36-.47.74-.91,1.14-1.32.41-.41.85-.79,1.32-1.14.71-.54,1.5-1.01,2.36-1.43.58-.28,1.18-.54,1.82-.76.64-.23,1.32-.43,2.02-.61.71-.18,1.45-.33,2.22-.46.77-.13,1.58-.23,2.42-.31,1.26-.11,2.59-.17,4-.17h5.26v-28.18h-7.14c-2.19,0-4.31.06-6.35.19-1.02.06-2.02.14-3.01.24-1.97.19-3.86.44-5.67.76-1.36.24-2.68.51-3.96.82-.73.18-1.45.37-2.15.57-1.08.31-2.13.65-3.15,1.01-.48.17-.95.35-1.41.54-.31.12-.61.24-.91.37-.76.32-1.5.66-2.22,1.01-.35.18-.7.36-1.05.54-3.18,1.69-5.94,3.74-8.28,6.15-1.97,2.03-3.7,4.35-5.18,6.94-.49.85-.94,1.74-1.37,2.66-.56,1.17-1.08,2.37-1.54,3.64-.56,1.5-1.05,3.08-1.48,4.72-.86,3.29-1.48,6.85-1.85,10.69-.28,2.88-.42,5.92-.42,9.11v8.36h30.82v-9.12Z"/>
        <g class="cls-4">
          <g class="cls-8">
            <rect class="cls-18" x="620.13" y="146.47" width="891.82" height=".24"/>
          </g>
        </g>
        <g class="cls-6">
          <g class="cls-7">
            <rect class="cls-18" x="620.13" y="129.11" width="891.82" height=".24"/>
          </g>
        </g>
        <path class="cls-19" d="M922.58,361.94h-20.29c-5.51,0-10.15-.94-13.9-2.82-3.75-1.87-7.37-5.18-10.87-9.92l-20.31-27.84-8.27-11.27c-4.76-6.51-9.89-11.21-15.4-14.09-5.51-2.88-12.53-4.32-21.04-4.32h-27.39v30.06h22.17c4.76,0,8.9,1,12.4,3.01,3.51,2,7.02,5.39,10.52,10.14l7.14,9.77-.03.03,18.77,25.52.02.03.04-.03,2.63,3.76c4.76,6.51,10.15,11.15,16.16,13.9,6,2.75,13.87,4.13,23.61,4.13h24.04v-30.06Z"/>
        <path class="cls-19" d="M1114.7,363.82c-.5,0-.99-.02-1.46-.05h-.05c-.46-.04-.9-.08-1.33-.15h-.09c-.42-.08-.82-.16-1.22-.25l-.11-.03c-.38-.09-.75-.2-1.11-.33l-.11-.04c-.35-.12-.69-.26-1.01-.41l-.12-.05c-.32-.15-.63-.32-.92-.5l-.11-.07c-.29-.18-.57-.38-.84-.59l-.1-.08c-.26-.21-.51-.44-.75-.68l-.09-.09c-.23-.24-.46-.5-.67-.77l-.08-.11c-.21-.27-.4-.56-.59-.87l-.07-.11c-.18-.31-.35-.63-.5-.96l-.05-.11c-.15-.34-.3-.7-.43-1.07l-.04-.11c-.13-.38-.24-.77-.35-1.18l-.02-.1c-.1-.42-.19-.85-.26-1.29v-.08c-.09-.46-.15-.93-.19-1.42v-.05c-.07-.75-.11-1.54-.11-2.36v-9.27h-29.42v21.81l.11-.15c.01.55.04,1.08.07,1.61,0,.16.02.32.03.48.02.39.05.77.09,1.15.01.16.03.32.04.47.05.49.1.99.17,1.47l.05.34c.05.37.11.74.17,1.1.03.19.07.38.1.57.05.29.11.57.17.86.04.19.08.38.12.57.09.41.19.82.3,1.21.05.21.12.41.17.62.06.22.12.44.19.65.07.23.14.46.22.68.06.18.12.36.19.54.29.84.62,1.64.97,2.42l.17.37c.12.24.23.48.36.72l.16.3c.29.54.59,1.07.91,1.58.51.81,1.06,1.57,1.65,2.3l.03.04c.27.33.55.65.83.96l.11.13c.32.35.65.68.99,1.01,1.65,1.57,3.63,2.89,5.96,3.96.93.43,1.92.82,2.96,1.17,1.04.35,2.14.67,3.29.94,1.15.28,2.36.51,3.62.71,3.15.49,6.65.73,10.48.73h16.91v-28.18h-9.4Z"/>
        <polyline class="cls-18" points="645.92 695.97 801.82 695.97 801.82 682.98 645.92 682.98"/>
        <path class="cls-18" d="M743.36,618.02h-6.5c0,3.61-1.44,6.81-3.8,9.19-2.37,2.36-5.58,3.8-9.19,3.8-3.61,0-6.81-1.44-9.19-3.8-2.36-2.37-3.8-5.58-3.8-9.19,0-3.61,1.44-6.82,3.8-9.19,2.37-2.36,5.58-3.8,9.19-3.8,3.61,0,6.81,1.44,9.19,3.8,2.36,2.37,3.8,5.58,3.8,9.19h12.99c0-7.16-2.92-13.69-7.61-18.37-4.68-4.69-11.22-7.61-18.37-7.61-7.16,0-13.69,2.92-18.37,7.61-4.69,4.68-7.61,11.22-7.61,18.37,0,7.15,2.92,13.69,7.61,18.37,4.68,4.69,11.22,7.61,18.37,7.61,7.16,0,13.69-2.92,18.37-7.61,4.69-4.68,7.61-11.22,7.61-18.37h-6.5Z"/>
        <path class="cls-18" d="M782.33,663.49h12.99c5.36,0,10.27-2.19,13.78-5.71,3.52-3.51,5.71-8.42,5.71-13.78v-58.46c0-5.36-2.19-10.27-5.71-13.78-3.51-3.52-8.42-5.71-13.78-5.71h-142.91c-5.36,0-10.27,2.19-13.78,5.71-3.52,3.51-5.71,8.42-5.71,13.78v58.46c0,5.36,2.19,10.27,5.71,13.78,3.51,3.52,8.42,5.71,13.78,5.71h12.99v-12.99h-12.99c-1.81,0-3.4-.72-4.59-1.9-1.19-1.2-1.9-2.78-1.9-4.59v-58.46c0-1.81.72-3.4,1.9-4.59,1.19-1.19,2.78-1.9,4.59-1.9h142.91c1.81,0,3.4.72,4.59,1.9,1.18,1.19,1.9,2.78,1.9,4.59v58.46c0,1.81-.72,3.4-1.9,4.59-1.2,1.19-2.78,1.9-4.59,1.9h-12.99v12.99Z"/>
        <path class="cls-18" d="M723.87,657v-6.5c-10.74,0-20.53,4.37-27.56,11.41-7.04,7.03-11.42,16.82-11.42,27.56,0,1.71.69,3.38,1.9,4.59,1.21,1.21,2.88,1.9,4.59,1.9h64.96c1.71,0,3.38-.69,4.59-1.9,1.21-1.21,1.9-2.88,1.9-4.59,0-10.74-4.37-20.53-11.42-27.56-7.03-7.04-16.82-11.42-27.56-11.41v12.99c7.2,0,13.65,2.9,18.37,7.61,4.71,4.72,7.61,11.18,7.61,18.37h6.5v-6.5h-64.96v6.5h6.5c0-7.2,2.9-13.65,7.61-18.37,4.72-4.71,11.18-7.61,18.37-7.61v-6.5Z"/>
        <path class="cls-19" d="M814.81,592.68v-7.14c0-5.36-2.19-10.27-5.71-13.78-3.51-3.52-8.42-5.71-13.78-5.71h-6.48v12.99h6.48c1.81,0,3.4.72,4.59,1.9,1.19,1.2,1.9,2.78,1.9,4.59v7.14h12.99Z"/>
        <path class="cls-19" d="M645.96,592.68v-7.14c0-1.81.72-3.4,1.9-4.59,1.2-1.19,2.78-1.9,4.59-1.9h6.48v-12.99h-6.48c-5.36,0-10.27,2.19-13.78,5.71-3.51,3.51-5.71,8.42-5.71,13.78v7.14h12.99Z"/>
        <path class="cls-19" d="M801.82,636.85v7.14c0,1.81-.72,3.4-1.9,4.59-1.2,1.19-2.78,1.9-4.59,1.9h-6.48v12.99h6.48c5.36,0,10.27-2.19,13.78-5.71,3.52-3.5,5.71-8.42,5.71-13.78v-7.14h-12.99Z"/>
        <path class="cls-19" d="M632.96,636.85v7.14c0,5.36,2.19,10.27,5.71,13.78,3.51,3.52,8.42,5.71,13.78,5.71h6.48v-12.99h-6.48c-1.82,0-3.4-.72-4.59-1.9-1.19-1.2-1.9-2.78-1.9-4.59v-7.14h-12.99Z"/>
        <path class="cls-18" d="M1011.25,592.04h-45.47v-45.47h-12.99v45.47c0,3.57,1.46,6.85,3.8,9.19,2.33,2.34,5.62,3.81,9.19,3.8h45.47v-12.99Z"/>
        <path class="cls-18" d="M959.28,546.57l-4.59,4.59,50.06,50.06v107.74h-103.93v-155.9h58.46v-6.5l-4.59,4.59,4.59-4.59v-6.5h-58.46c-3.57,0-6.85,1.46-9.19,3.8-2.34,2.33-3.81,5.62-3.8,9.19v155.9c0,3.57,1.46,6.85,3.8,9.19,2.33,2.34,5.62,3.81,9.19,3.8h103.93c3.57,0,6.85-1.46,9.19-3.8,2.34-2.33,3.81-5.62,3.81-9.19v-110.43c0-1.71-.69-3.38-1.9-4.59l-51.97-51.97c-1.21-1.21-2.88-1.9-4.59-1.9v6.5Z"/>
        <path class="cls-19" d="M900.82,559.81v-6.74h6.22v-12.99h-6.22c-3.57,0-6.85,1.46-9.19,3.8-2.34,2.33-3.81,5.62-3.8,9.19v6.74h12.99Z"/>
        <path class="cls-19" d="M887.83,702.23v6.74c0,3.57,1.46,6.86,3.8,9.19,2.33,2.34,5.62,3.81,9.19,3.8h6.22v-12.99h-6.22v-6.74h-12.99Z"/>
        <path class="cls-19" d="M952.77,585.3v6.74c0,3.57,1.46,6.86,3.8,9.19,2.33,2.34,5.62,3.81,9.19,3.8h6.22v-12.99h-6.22v-6.74h-12.99Z"/>
        <path class="cls-19" d="M1004.69,702.23v6.74h-6.22v12.99h6.22c3.57,0,6.85-1.46,9.19-3.8,2.34-2.33,3.81-5.62,3.8-9.19v-6.74h-12.99Z"/>
        <path class="cls-18" d="M1396.49,540.07v58.46c0,7.2-2.9,13.65-7.61,18.37-4.72,4.71-11.18,7.6-18.37,7.61-7.2,0-13.65-2.9-18.37-7.61-4.71-4.72-7.61-11.18-7.61-18.37v-58.46h-12.99v58.46c0,10.74,4.37,20.53,11.41,27.56,7.03,7.04,16.82,11.42,27.56,11.41,10.74,0,20.53-4.37,27.56-11.41,7.04-7.03,11.42-16.82,11.41-27.56v-58.46h-12.99Z"/>
        <polyline class="cls-18" points="1377.01 605.03 1377.01 540.07 1364.01 540.07 1364.01 605.03"/>
        <polyline class="cls-18" points="1377.01 721.96 1377.01 631.01 1364.01 631.01 1364.01 721.96"/>
        <path class="cls-18" d="M1454.96,721.96v-175.39h-6.5v6.5c7.19,0,13.65,2.9,18.37,7.61,4.71,4.72,7.61,11.18,7.61,18.37v64.96h0-25.98v12.99h25.98c3.57,0,6.86-1.46,9.19-3.81,2.34-2.33,3.81-5.62,3.8-9.19v-64.96c0-10.74-4.37-20.53-11.41-27.56-7.03-7.04-16.82-11.42-27.56-11.42h-6.5v181.88h12.99Z"/>
        <polyline class="cls-19" points="1377.01 553.47 1377.01 540.07 1364.01 540.07 1364.01 553.47"/>
        <polyline class="cls-19" points="1409.5 553.47 1409.5 540.07 1396.51 540.07 1396.51 553.47"/>
        <polyline class="cls-19" points="1344.43 553.47 1344.43 540.07 1331.44 540.07 1331.44 553.47"/>
        <polyline class="cls-19" points="1377.01 605.49 1377.01 592.09 1364.01 592.09 1364.01 605.49"/>
        <polyline class="cls-19" points="1377.01 722.12 1377.01 708.72 1364.01 708.72 1364.01 722.12"/>
        <polyline class="cls-19" points="1454.95 722.12 1454.95 708.72 1441.96 708.72 1441.96 722.12"/>
        <path class="cls-18" d="M1174.23,669.94h-58.5c-3.61,0-6.82-1.45-9.19-3.81-2.36-2.37-3.8-5.58-3.81-9.19v-78c0-3.61,1.45-6.82,3.81-9.19,2.37-2.36,5.58-3.8,9.19-3.81h130.01c3.61,0,6.82,1.45,9.19,3.81,2.36,2.37,3.81,5.58,3.81,9.19v78c0,3.61-1.44,6.82-3.81,9.19-2.37,2.36-5.58,3.8-9.19,3.81h-27.99c-7.18,0-13.77,3.94-17.17,10.26l-19.07,35.42,11.45,6.16,19.07-35.42c1.13-2.11,3.33-3.42,5.72-3.42h27.99c7.16,0,13.7-2.92,18.39-7.61,4.7-4.68,7.62-11.23,7.61-18.39v-78c0-7.16-2.92-13.7-7.61-18.39-4.68-4.7-11.23-7.62-18.39-7.62h-130.01c-7.16,0-13.7,2.92-18.39,7.62-4.69,4.68-7.62,11.23-7.61,18.39v78c0,7.16,2.92,13.7,7.61,18.39,4.69,4.7,11.23,7.62,18.39,7.61h58.5v-13Z"/>
        <polyline class="cls-18" points="1128.73 604.94 1232.74 604.94 1232.74 591.94 1128.73 591.94"/>
        <polyline class="cls-18" points="1128.73 643.94 1193.73 643.94 1193.73 630.94 1128.73 630.94"/>
        <polyline class="cls-19" points="1128.76 605.03 1141.85 605.03 1141.85 592.04 1128.76 592.04"/>
        <polyline class="cls-19" points="1128.76 644.07 1141.85 644.07 1141.85 631.08 1128.76 631.08"/>
        <polyline class="cls-19" points="1219.63 605.03 1232.71 605.03 1232.71 592.04 1219.63 592.04"/>
        <polyline class="cls-19" points="1180.81 644.07 1193.89 644.07 1193.89 631.08 1180.81 631.08"/>
        <polyline class="cls-19" points="1187.84 703.87 1181.51 715.63 1192.95 721.79 1199.28 710.03"/>
      </g>
    </g>
  </g>
</svg>